<!-- Generated by IcoMoon.io -->
<svg version="1.1" xmlns="http://www.w3.org/2000/svg" width="1024" height="1024" viewBox="0 0 1024 1024">
<title></title>
<g id="icomoon-ignore">
</g>
<path fill="#000" d="M810.559 511.99c0 8.207-4.14 17.47-10.245 23.574l-478.191 478.191c-6.17 6.17-15.368 10.245-23.574 10.245s-17.47-4.14-23.574-10.245l-51.289-51.289c-6.17-6.17-10.245-14.385-10.245-23.574 0-8.207 4.14-17.47 10.245-23.574l403.318-403.318-403.318-403.318c-6.17-6.17-10.245-15.368-10.245-23.574s4.14-17.47 10.245-23.574l51.289-51.289c6.17-6.17 15.368-10.245 23.574-10.245s17.47 4.14 23.574 10.245l478.191 478.191c6.17 6.17 10.245 15.368 10.245 23.574z"></path>
</svg>
