<!-- Generated by IcoMoon.io -->
<svg version="1.1" xmlns="http://www.w3.org/2000/svg" width="576" height="576" viewBox="0 0 576 576">
<title></title>
<g id="icomoon-ignore">
</g>
<path fill="#000" d="M500.046 107.659c-26.093-28.3-61.897-43.887-100.823-43.887-29.097 0-55.743 9.2-79.202 27.34-11.838 9.156-22.563 20.36-32.020 33.434-9.453-13.073-20.183-24.278-32.023-33.434-23.455-18.141-50.101-27.34-79.198-27.34-38.926 0-74.734 15.587-100.828 43.887-25.782 27.969-39.983 66.181-39.983 107.599 0 42.63 15.886 81.652 49.994 122.808 30.511 36.815 74.365 74.188 125.147 117.463 17.34 14.78 36.996 31.531 57.405 49.374 5.393 4.723 12.311 7.323 19.487 7.323 7.172 0 14.094-2.599 19.478-7.314 20.41-17.848 40.076-34.607 57.424-49.395 50.774-43.267 94.628-80.637 125.139-117.454 34.107-41.154 49.989-80.175 49.989-122.808 0-41.413-14.201-79.625-39.986-107.594z"></path>
</svg>
