<!-- Generated by IcoMoon.io -->
<svg version="1.1" xmlns="http://www.w3.org/2000/svg" width="672" height="672" viewBox="0 0 672 672">
<title></title>
<g id="icomoon-ignore">
</g>
<path fill="#000" d="M604.137 274.295c-1.853-5.705-6.782-9.863-12.717-10.724l-166.725-24.227-74.564-151.080c-2.654-5.379-8.131-8.782-14.128-8.782-5.998 0-11.474 3.403-14.129 8.782l-74.568 151.080-166.724 24.227c-5.934 0.861-10.865 5.019-12.718 10.723-1.855 5.705-0.308 11.967 3.987 16.153l120.639 117.599-28.476 166.053c-1.015 5.912 1.415 11.884 6.267 15.41 2.744 1.994 5.996 3.008 9.264 3.008 2.51 0 5.024-0.597 7.329-1.81l149.124-78.4 149.119 78.399c5.309 2.792 11.742 2.327 16.594-1.198s7.284-9.5 6.27-15.411l-28.485-166.052 120.652-117.601c4.294-4.184 5.842-10.446 3.986-16.15z"></path>
</svg>
